<svg width="602" height="191" viewBox="0 0 602 191" fill="none" xmlns="http://www.w3.org/2000/svg">
<rect x="585" y="122" width="17" height="17" fill="white"/>
<path d="M239.279 87.2045L248.314 89.7614C248.882 88.2557 249.72 86.7926 250.828 85.3722C251.907 83.9233 253.385 82.7301 255.26 81.7926C257.135 80.8551 259.535 80.3864 262.461 80.3864C266.467 80.3864 269.805 81.3097 272.475 83.1562C275.118 84.9744 276.439 87.2898 276.439 90.1023C276.439 92.6023 275.529 94.5767 273.711 96.0256C271.893 97.4744 269.052 98.6818 265.189 99.6477L255.473 102.034C249.62 103.455 245.26 105.628 242.39 108.554C239.521 111.452 238.086 115.187 238.086 119.761C238.086 123.511 239.166 126.864 241.325 129.818C243.456 132.773 246.439 135.102 250.274 136.807C254.109 138.511 258.569 139.364 263.654 139.364C270.331 139.364 275.856 137.915 280.231 135.017C284.606 132.119 287.376 127.886 288.541 122.318L278.995 119.932C278.086 123.455 276.368 126.097 273.839 127.858C271.282 129.619 267.944 130.5 263.825 130.5C259.137 130.5 255.416 129.506 252.66 127.517C249.876 125.5 248.484 123.085 248.484 120.273C248.484 118 249.279 116.097 250.87 114.562C252.461 113 254.904 111.835 258.2 111.068L269.109 108.511C275.103 107.091 279.507 104.889 282.319 101.906C285.103 98.8949 286.495 95.1307 286.495 90.6136C286.495 86.9205 285.458 83.6534 283.385 80.8125C281.282 77.9716 278.427 75.7415 274.819 74.1222C271.183 72.5028 267.064 71.6932 262.461 71.6932C255.984 71.6932 250.899 73.1136 247.206 75.9545C243.484 78.7955 240.842 82.5455 239.279 87.2045Z" fill="white"/>
<path d="M197.033 139.44C194.313 139.44 191.833 138.68 189.593 137.16C187.433 135.56 185.833 133.32 184.793 130.44L164.873 76.8H176.993L194.753 126.36C195.073 127.16 195.433 127.72 195.833 128.04C196.233 128.36 196.673 128.52 197.153 128.52C197.713 128.52 198.153 128.36 198.473 128.04C198.873 127.72 199.233 127.16 199.553 126.36L217.433 76.8H229.313L209.393 130.44C208.273 133.32 206.633 135.56 204.473 137.16C202.313 138.68 199.833 139.44 197.033 139.44ZM304.006 138V76.8H315.166V138H304.006ZM309.646 67.08C307.646 67.08 305.886 66.36 304.366 64.92C302.926 63.4 302.206 61.64 302.206 59.64C302.206 57.64 302.926 55.92 304.366 54.48C305.886 52.96 307.646 52.2 309.646 52.2C311.646 52.2 313.366 52.96 314.806 54.48C316.326 55.92 317.086 57.64 317.086 59.64C317.086 61.64 316.326 63.4 314.806 64.92C313.366 66.36 311.646 67.08 309.646 67.08ZM341.84 162.36V152.88H371.84C374.8 152.88 377.08 152 378.68 150.24C380.36 148.48 381.2 146.16 381.2 143.28V126.48H380.96C379.44 128.8 377.6 130.88 375.44 132.72C373.28 134.56 370.8 136.04 368 137.16C365.2 138.2 362.04 138.72 358.52 138.72C352.76 138.72 347.68 137.4 343.28 134.76C338.88 132.04 335.44 128.32 332.96 123.6C330.48 118.8 329.24 113.32 329.24 107.16C329.24 101.16 330.48 95.76 332.96 90.96C335.44 86.16 339 82.36 343.64 79.56C348.36 76.76 354.04 75.36 360.68 75.36C367.08 75.36 372.64 76.72 377.36 79.44C382.08 82.16 385.72 85.96 388.28 90.84C390.92 95.64 392.24 101.28 392.24 107.76V144C392.24 149.6 390.6 154.04 387.32 157.32C384.04 160.68 379.56 162.36 373.88 162.36H341.84ZM360.56 129.24C364.64 129.24 368.2 128.28 371.24 126.36C374.36 124.44 376.76 121.84 378.44 118.56C380.2 115.2 381.08 111.44 381.08 107.28C381.08 103.04 380.24 99.24 378.56 95.88C376.88 92.52 374.52 89.88 371.48 87.96C368.44 85.96 364.8 84.96 360.56 84.96C356.4 84.96 352.8 85.96 349.76 87.96C346.8 89.88 344.48 92.56 342.8 96C341.2 99.36 340.4 103.16 340.4 107.4C340.4 111.4 341.2 115.08 342.8 118.44C344.48 121.72 346.8 124.36 349.76 126.36C352.8 128.28 356.4 129.24 360.56 129.24ZM409.358 138V102.6C409.358 97.16 410.558 92.4 412.958 88.32C415.438 84.24 418.838 81.08 423.158 78.84C427.478 76.52 432.398 75.36 437.918 75.36C443.518 75.36 448.438 76.52 452.678 78.84C456.998 81.08 460.358 84.24 462.758 88.32C465.238 92.4 466.478 97.16 466.478 102.6V138H455.438V102.72C455.438 99.04 454.598 95.88 452.918 93.24C451.318 90.52 449.158 88.44 446.438 87C443.798 85.56 440.958 84.84 437.918 84.84C434.878 84.84 431.998 85.56 429.278 87C426.638 88.44 424.478 90.52 422.798 93.24C421.198 95.88 420.398 99.04 420.398 102.72V138H409.358ZM515.086 138C508.366 138 502.406 136.76 497.206 134.28C492.006 131.72 487.926 128.16 484.966 123.6C482.086 118.96 480.646 113.56 480.646 107.4C480.646 101.32 481.886 95.88 484.366 91.08C486.846 86.2 490.286 82.36 494.686 79.56C499.086 76.76 504.206 75.36 510.046 75.36C516.366 75.36 521.606 76.72 525.766 79.44C530.006 82.16 533.166 85.84 535.246 90.48C537.326 95.04 538.366 100.16 538.366 105.84C538.366 106.72 538.326 107.64 538.246 108.6C538.246 109.56 538.166 110.4 538.006 111.12H492.406C492.806 114.88 494.046 118.08 496.126 120.72C498.206 123.28 500.846 125.24 504.046 126.6C507.326 127.88 510.926 128.52 514.846 128.52H530.806V138H515.086ZM492.286 103.32H527.206C527.206 101.8 527.046 100.2 526.726 98.52C526.406 96.76 525.846 95.08 525.046 93.48C524.246 91.8 523.166 90.32 521.806 89.04C520.526 87.68 518.886 86.6 516.886 85.8C514.966 85 512.686 84.6 510.046 84.6C507.246 84.6 504.766 85.16 502.606 86.28C500.526 87.32 498.726 88.76 497.206 90.6C495.686 92.36 494.526 94.36 493.726 96.6C492.926 98.84 492.446 101.08 492.286 103.32ZM552.084 138V94.2C552.084 88.76 553.604 84.52 556.644 81.48C559.764 78.36 564.044 76.8 569.484 76.8H582.084V86.28H571.524C568.884 86.28 566.804 87.04 565.284 88.56C563.844 90.08 563.124 92.2 563.124 94.92V138H552.084Z" fill="white"/>
<path d="M37.5156 139H10.5838V51.7273H38.7088C47.1747 51.7273 54.419 53.4744 60.4418 56.9688C66.4645 60.4347 71.081 65.4205 74.2912 71.9261C77.5014 78.4034 79.1065 86.1591 79.1065 95.1932C79.1065 104.284 77.4872 112.111 74.2486 118.673C71.0099 125.207 66.294 130.236 60.1009 133.759C53.9077 137.253 46.3793 139 37.5156 139ZM21.152 129.625H36.8338C44.0497 129.625 50.0298 128.233 54.7741 125.449C59.5185 122.665 63.0554 118.702 65.3849 113.56C67.7145 108.418 68.8793 102.295 68.8793 95.1932C68.8793 88.1477 67.7287 82.0824 65.4276 76.9972C63.1264 71.8835 59.6889 67.9631 55.1151 65.2358C50.5412 62.4801 44.8452 61.1023 38.027 61.1023H21.152V129.625ZM96.8338 139V51.7273H149.504V61.1023H107.402V90.5909H146.777V99.9659H107.402V129.625H150.186V139H96.8338Z" fill="white"/>
<path d="M484.565 60H482.321V52.7273H484.665C485.37 52.7273 485.974 52.8729 486.476 53.1641C486.978 53.4529 487.363 53.8684 487.63 54.4105C487.898 54.9503 488.031 55.5966 488.031 56.3494C488.031 57.107 487.896 57.7592 487.627 58.3061C487.357 58.8506 486.964 59.2696 486.448 59.5632C485.931 59.8544 485.304 60 484.565 60ZM483.202 59.2188H484.509C485.11 59.2188 485.608 59.1027 486.004 58.8707C486.399 58.6387 486.694 58.3085 486.888 57.88C487.082 57.4515 487.179 56.9413 487.179 56.3494C487.179 55.7623 487.083 55.2569 486.891 54.8331C486.7 54.407 486.413 54.0803 486.032 53.853C485.651 53.6233 485.176 53.5085 484.608 53.5085H483.202V59.2188ZM491.682 60.1136C491.156 60.1136 490.703 59.9976 490.322 59.7656C489.943 59.5312 489.651 59.2045 489.445 58.7855C489.241 58.3641 489.139 57.8741 489.139 57.3153C489.139 56.7566 489.241 56.2642 489.445 55.8381C489.651 55.4096 489.937 55.0758 490.304 54.8366C490.673 54.5952 491.104 54.4744 491.597 54.4744C491.881 54.4744 492.161 54.5218 492.438 54.6165C492.715 54.7112 492.967 54.8651 493.195 55.0781C493.422 55.2888 493.603 55.5682 493.738 55.9162C493.873 56.2642 493.94 56.6927 493.94 57.2017V57.5568H489.736V56.8324H493.088C493.088 56.5246 493.027 56.25 492.903 56.0085C492.783 55.767 492.61 55.5765 492.385 55.4368C492.162 55.2971 491.9 55.2273 491.597 55.2273C491.263 55.2273 490.974 55.3101 490.73 55.4759C490.489 55.6392 490.303 55.8523 490.173 56.1151C490.042 56.3778 489.977 56.6596 489.977 56.9602V57.4432C489.977 57.8551 490.048 58.2043 490.19 58.4908C490.335 58.7749 490.535 58.9915 490.791 59.1406C491.046 59.2874 491.343 59.3608 491.682 59.3608C491.902 59.3608 492.101 59.33 492.278 59.2685C492.458 59.2045 492.613 59.1098 492.744 58.9844C492.874 58.8565 492.975 58.6979 493.046 58.5085L493.855 58.7358C493.77 59.0104 493.627 59.2519 493.426 59.4602C493.224 59.6662 492.976 59.8272 492.68 59.9432C492.384 60.0568 492.051 60.1136 491.682 60.1136ZM499.509 54.5455L497.492 60H496.64L494.623 54.5455H495.532L497.038 58.892H497.095L498.6 54.5455H499.509ZM502.707 60.1136C502.182 60.1136 501.728 59.9976 501.347 59.7656C500.968 59.5312 500.676 59.2045 500.47 58.7855C500.266 58.3641 500.165 57.8741 500.165 57.3153C500.165 56.7566 500.266 56.2642 500.47 55.8381C500.676 55.4096 500.963 55.0758 501.329 54.8366C501.699 54.5952 502.13 54.4744 502.622 54.4744C502.906 54.4744 503.187 54.5218 503.464 54.6165C503.741 54.7112 503.993 54.8651 504.22 55.0781C504.447 55.2888 504.628 55.5682 504.763 55.9162C504.898 56.2642 504.966 56.6927 504.966 57.2017V57.5568H500.761V56.8324H504.114C504.114 56.5246 504.052 56.25 503.929 56.0085C503.808 55.767 503.635 55.5765 503.41 55.4368C503.188 55.2971 502.925 55.2273 502.622 55.2273C502.288 55.2273 501.999 55.3101 501.756 55.4759C501.514 55.6392 501.328 55.8523 501.198 56.1151C501.068 56.3778 501.003 56.6596 501.003 56.9602V57.4432C501.003 57.8551 501.074 58.2043 501.216 58.4908C501.36 58.7749 501.56 58.9915 501.816 59.1406C502.072 59.2874 502.369 59.3608 502.707 59.3608C502.927 59.3608 503.126 59.33 503.304 59.2685C503.484 59.2045 503.639 59.1098 503.769 58.9844C503.899 58.8565 504 58.6979 504.071 58.5085L504.881 58.7358C504.795 59.0104 504.652 59.2519 504.451 59.4602C504.25 59.6662 504.001 59.8272 503.705 59.9432C503.409 60.0568 503.077 60.1136 502.707 60.1136ZM507.079 52.7273V60H506.241V52.7273H507.079ZM510.83 60.1136C510.337 60.1136 509.905 59.9964 509.533 59.7621C509.164 59.5277 508.875 59.1998 508.667 58.7784C508.461 58.357 508.358 57.8646 508.358 57.3011C508.358 56.733 508.461 56.237 508.667 55.8132C508.875 55.3894 509.164 55.0604 509.533 54.826C509.905 54.5916 510.337 54.4744 510.83 54.4744C511.322 54.4744 511.753 54.5916 512.122 54.826C512.494 55.0604 512.783 55.3894 512.989 55.8132C513.197 56.237 513.301 56.733 513.301 57.3011C513.301 57.8646 513.197 58.357 512.989 58.7784C512.783 59.1998 512.494 59.5277 512.122 59.7621C511.753 59.9964 511.322 60.1136 510.83 60.1136ZM510.83 59.3608C511.204 59.3608 511.511 59.2649 511.753 59.0732C511.994 58.8814 512.173 58.6293 512.289 58.3168C512.405 58.0043 512.463 57.6657 512.463 57.3011C512.463 56.9366 512.405 56.5968 512.289 56.282C512.173 55.9671 511.994 55.7126 511.753 55.5185C511.511 55.3243 511.204 55.2273 510.83 55.2273C510.456 55.2273 510.148 55.3243 509.906 55.5185C509.665 55.7126 509.486 55.9671 509.37 56.282C509.254 56.5968 509.196 56.9366 509.196 57.3011C509.196 57.6657 509.254 58.0043 509.37 58.3168C509.486 58.6293 509.665 58.8814 509.906 59.0732C510.148 59.2649 510.456 59.3608 510.83 59.3608ZM514.581 62.0455V54.5455H515.39V55.4119H515.49C515.551 55.3172 515.636 55.1965 515.745 55.0497C515.857 54.9006 516.015 54.768 516.221 54.652C516.429 54.5336 516.711 54.4744 517.066 54.4744C517.526 54.4744 517.93 54.5893 518.281 54.8189C518.631 55.0485 518.905 55.3741 519.101 55.7955C519.298 56.2169 519.396 56.714 519.396 57.2869C519.396 57.8646 519.298 58.3653 519.101 58.7891C518.905 59.2105 518.632 59.5372 518.284 59.7692C517.936 59.9988 517.535 60.1136 517.081 60.1136C516.73 60.1136 516.45 60.0556 516.239 59.9396C516.028 59.8213 515.866 59.6875 515.752 59.5384C515.639 59.3868 515.551 59.2614 515.49 59.1619H515.419V62.0455H514.581ZM515.404 57.2727C515.404 57.6847 515.465 58.0481 515.585 58.3629C515.706 58.6754 515.883 58.9205 516.115 59.098C516.347 59.2732 516.631 59.3608 516.967 59.3608C517.317 59.3608 517.61 59.2685 517.844 59.0838C518.081 58.8968 518.258 58.6458 518.377 58.331C518.497 58.0137 518.558 57.661 518.558 57.2727C518.558 56.8892 518.499 56.5436 518.38 56.2358C518.264 55.9257 518.088 55.6806 517.851 55.5007C517.617 55.3184 517.322 55.2273 516.967 55.2273C516.626 55.2273 516.34 55.3137 516.108 55.4865C515.876 55.657 515.7 55.8961 515.582 56.2038C515.464 56.5092 515.404 56.8655 515.404 57.2727ZM522.961 60.1136C522.436 60.1136 521.982 59.9976 521.601 59.7656C521.222 59.5312 520.93 59.2045 520.724 58.7855C520.52 58.3641 520.419 57.8741 520.419 57.3153C520.419 56.7566 520.52 56.2642 520.724 55.8381C520.93 55.4096 521.216 55.0758 521.583 54.8366C521.953 54.5952 522.384 54.4744 522.876 54.4744C523.16 54.4744 523.441 54.5218 523.718 54.6165C523.995 54.7112 524.247 54.8651 524.474 55.0781C524.701 55.2888 524.882 55.5682 525.017 55.9162C525.152 56.2642 525.22 56.6927 525.22 57.2017V57.5568H521.015V56.8324H524.367C524.367 56.5246 524.306 56.25 524.183 56.0085C524.062 55.767 523.889 55.5765 523.664 55.4368C523.442 55.2971 523.179 55.2273 522.876 55.2273C522.542 55.2273 522.253 55.3101 522.009 55.4759C521.768 55.6392 521.582 55.8523 521.452 56.1151C521.322 56.3778 521.257 56.6596 521.257 56.9602V57.4432C521.257 57.8551 521.328 58.2043 521.47 58.4908C521.614 58.7749 521.814 58.9915 522.07 59.1406C522.326 59.2874 522.623 59.3608 522.961 59.3608C523.181 59.3608 523.38 59.33 523.558 59.2685C523.738 59.2045 523.893 59.1098 524.023 58.9844C524.153 58.8565 524.254 58.6979 524.325 58.5085L525.134 58.7358C525.049 59.0104 524.906 59.2519 524.705 59.4602C524.504 59.6662 524.255 59.8272 523.959 59.9432C523.663 60.0568 523.331 60.1136 522.961 60.1136ZM526.495 60V54.5455H527.304V55.3693H527.361C527.46 55.0994 527.64 54.8804 527.901 54.7124C528.161 54.5443 528.455 54.4602 528.782 54.4602C528.843 54.4602 528.92 54.4614 529.012 54.4638C529.105 54.4661 529.175 54.4697 529.222 54.4744V55.3267C529.193 55.3196 529.128 55.3089 529.027 55.2947C528.927 55.2782 528.822 55.2699 528.71 55.2699C528.445 55.2699 528.209 55.3255 528 55.4368C527.794 55.5457 527.631 55.6972 527.51 55.8913C527.392 56.0831 527.333 56.3021 527.333 56.5483V60H526.495ZM535.087 60.0994C534.609 60.0994 534.197 60.0118 533.852 59.8366C533.506 59.6615 533.24 59.4212 533.053 59.1158C532.866 58.8104 532.772 58.4612 532.772 58.0682C532.772 57.7652 532.836 57.4964 532.964 57.2621C533.094 57.0253 533.273 56.8063 533.5 56.6051C533.73 56.4015 533.994 56.1979 534.292 55.9943L535.343 55.2131C535.549 55.0781 535.714 54.9337 535.837 54.7798C535.962 54.6259 536.025 54.4247 536.025 54.1761C536.025 53.9915 535.943 53.8127 535.78 53.6399C535.619 53.4671 535.407 53.3807 535.144 53.3807C534.96 53.3807 534.796 53.428 534.654 53.5227C534.515 53.6151 534.404 53.7334 534.324 53.8778C534.246 54.0199 534.207 54.1667 534.207 54.3182C534.207 54.4886 534.253 54.6615 534.345 54.8366C534.44 55.0095 534.56 55.187 534.704 55.3693C534.851 55.5492 535.002 55.7339 535.158 55.9233L538.497 60H537.488L534.732 56.6761C534.477 56.3684 534.245 56.089 534.036 55.8381C533.828 55.5871 533.662 55.3397 533.539 55.0959C533.416 54.852 533.354 54.5881 533.354 54.304C533.354 53.9773 533.427 53.6908 533.571 53.4446C533.718 53.196 533.923 53.0031 534.185 52.8658C534.451 52.7261 534.761 52.6562 535.116 52.6562C535.48 52.6562 535.794 52.7273 536.057 52.8693C536.32 53.009 536.522 53.1948 536.664 53.4268C536.806 53.6565 536.877 53.9062 536.877 54.1761C536.877 54.5241 536.791 54.826 536.618 55.0817C536.445 55.3374 536.21 55.5753 535.911 55.7955L534.462 56.875C534.136 57.1165 533.914 57.3509 533.798 57.5781C533.682 57.8054 533.624 57.9687 533.624 58.0682C533.624 58.2955 533.684 58.5073 533.802 58.7038C533.92 58.9003 534.087 59.0589 534.303 59.1797C534.518 59.3004 534.77 59.3608 535.059 59.3608C535.334 59.3608 535.601 59.3028 535.862 59.1868C536.122 59.0684 536.358 58.898 536.568 58.6754C536.781 58.4529 536.949 58.1854 537.073 57.8729C537.198 57.5604 537.261 57.2088 537.261 56.8182H538.07C538.07 57.3011 538.015 57.6953 537.903 58.0007C537.792 58.3061 537.667 58.5452 537.527 58.718C537.387 58.8909 537.275 59.0199 537.19 59.1051C537.161 59.1406 537.135 59.1761 537.112 59.2116C537.088 59.2472 537.062 59.2827 537.033 59.3182C536.799 59.581 536.503 59.7775 536.146 59.9077C535.788 60.0355 535.435 60.0994 535.087 60.0994ZM544.595 60H542.35V52.7273H544.694C545.4 52.7273 546.003 52.8729 546.505 53.1641C547.007 53.4529 547.392 53.8684 547.659 54.4105C547.927 54.9503 548.061 55.5966 548.061 56.3494C548.061 57.107 547.926 57.7592 547.656 58.3061C547.386 58.8506 546.993 59.2696 546.477 59.5632C545.961 59.8544 545.333 60 544.595 60ZM543.231 59.2188H544.538C545.139 59.2188 545.638 59.1027 546.033 58.8707C546.428 58.6387 546.723 58.3085 546.917 57.88C547.111 57.4515 547.208 56.9413 547.208 56.3494C547.208 55.7623 547.112 55.2569 546.921 54.8331C546.729 54.407 546.443 54.0803 546.061 53.853C545.68 53.6233 545.206 53.5085 544.637 53.5085H543.231V59.2188ZM551.711 60.1136C551.186 60.1136 550.732 59.9976 550.351 59.7656C549.972 59.5312 549.68 59.2045 549.474 58.7855C549.27 58.3641 549.169 57.8741 549.169 57.3153C549.169 56.7566 549.27 56.2642 549.474 55.8381C549.68 55.4096 549.966 55.0758 550.333 54.8366C550.703 54.5952 551.134 54.4744 551.626 54.4744C551.91 54.4744 552.191 54.5218 552.468 54.6165C552.745 54.7112 552.997 54.8651 553.224 55.0781C553.451 55.2888 553.632 55.5682 553.767 55.9162C553.902 56.2642 553.97 56.6927 553.97 57.2017V57.5568H549.765V56.8324H553.117C553.117 56.5246 553.056 56.25 552.933 56.0085C552.812 55.767 552.639 55.5765 552.414 55.4368C552.192 55.2971 551.929 55.2273 551.626 55.2273C551.292 55.2273 551.003 55.3101 550.759 55.4759C550.518 55.6392 550.332 55.8523 550.202 56.1151C550.072 56.3778 550.007 56.6596 550.007 56.9602V57.4432C550.007 57.8551 550.078 58.2043 550.22 58.4908C550.364 58.7749 550.564 58.9915 550.82 59.1406C551.076 59.2874 551.373 59.3608 551.711 59.3608C551.931 59.3608 552.13 59.33 552.308 59.2685C552.488 59.2045 552.643 59.1098 552.773 58.9844C552.903 58.8565 553.004 58.6979 553.075 58.5085L553.884 58.7358C553.799 59.0104 553.656 59.2519 553.455 59.4602C553.254 59.6662 553.005 59.8272 552.709 59.9432C552.413 60.0568 552.081 60.1136 551.711 60.1136ZM559.108 55.767L558.355 55.9801C558.308 55.8546 558.238 55.7327 558.146 55.6143C558.056 55.4936 557.933 55.3942 557.777 55.3161C557.62 55.2379 557.42 55.1989 557.176 55.1989C556.843 55.1989 556.564 55.2758 556.342 55.4297C556.122 55.5812 556.012 55.7741 556.012 56.0085C556.012 56.2169 556.087 56.3814 556.239 56.5021C556.39 56.6229 556.627 56.7235 556.949 56.804L557.759 57.0028C558.246 57.1212 558.61 57.3023 558.849 57.5462C559.088 57.7876 559.208 58.099 559.208 58.4801C559.208 58.7926 559.118 59.072 558.938 59.3182C558.76 59.5644 558.512 59.7585 558.192 59.9006C557.872 60.0426 557.501 60.1136 557.077 60.1136C556.521 60.1136 556.06 59.9929 555.696 59.7514C555.331 59.5099 555.1 59.1572 555.003 58.6932L555.799 58.4943C555.874 58.7879 556.018 59.008 556.228 59.1548C556.441 59.3016 556.719 59.375 557.063 59.375C557.453 59.375 557.764 59.2921 557.993 59.1264C558.225 58.9583 558.341 58.7571 558.341 58.5227C558.341 58.3333 558.275 58.1747 558.142 58.0469C558.01 57.9167 557.806 57.8196 557.532 57.7557L556.622 57.5426C556.123 57.4242 555.756 57.2408 555.522 56.9922C555.29 56.7412 555.174 56.4276 555.174 56.0511C555.174 55.7434 555.26 55.4711 555.433 55.2344C555.608 54.9976 555.846 54.8118 556.147 54.6768C556.45 54.5419 556.793 54.4744 557.176 54.4744C557.716 54.4744 558.14 54.5928 558.448 54.8295C558.758 55.0663 558.978 55.3788 559.108 55.767ZM560.469 60V54.5455H561.307V60H560.469ZM560.895 53.6364C560.732 53.6364 560.591 53.5807 560.473 53.4695C560.357 53.3582 560.299 53.2244 560.299 53.0682C560.299 52.9119 560.357 52.7782 560.473 52.6669C560.591 52.5556 560.732 52.5 560.895 52.5C561.059 52.5 561.198 52.5556 561.314 52.6669C561.433 52.7782 561.492 52.9119 561.492 53.0682C561.492 53.2244 561.433 53.3582 561.314 53.4695C561.198 53.5807 561.059 53.6364 560.895 53.6364ZM565.044 62.1591C564.639 62.1591 564.291 62.107 564 62.0028C563.709 61.901 563.466 61.7661 563.272 61.598C563.08 61.4323 562.927 61.2547 562.814 61.0653L563.481 60.5966C563.557 60.696 563.653 60.8097 563.769 60.9375C563.885 61.0677 564.044 61.1802 564.245 61.2749C564.449 61.3719 564.715 61.4205 565.044 61.4205C565.484 61.4205 565.848 61.3139 566.134 61.1009C566.421 60.8878 566.564 60.554 566.564 60.0994V58.9915H566.493C566.431 59.0909 566.344 59.214 566.23 59.3608C566.119 59.5052 565.958 59.6342 565.747 59.7479C565.539 59.8591 565.257 59.9148 564.902 59.9148C564.462 59.9148 564.066 59.8106 563.716 59.6023C563.368 59.3939 563.092 59.0909 562.888 58.6932C562.687 58.2955 562.587 57.8125 562.587 57.2443C562.587 56.6856 562.685 56.1991 562.881 55.7848C563.078 55.3681 563.351 55.0462 563.702 54.8189C564.052 54.5893 564.457 54.4744 564.916 54.4744C565.271 54.4744 565.553 54.5336 565.761 54.652C565.972 54.768 566.133 54.9006 566.244 55.0497C566.358 55.1965 566.445 55.3172 566.507 55.4119H566.592V54.5455H567.402V60.1562C567.402 60.625 567.295 61.0062 567.082 61.2997C566.872 61.5956 566.588 61.8123 566.23 61.9496C565.875 62.0893 565.48 62.1591 565.044 62.1591ZM565.016 59.1619C565.352 59.1619 565.636 59.085 565.868 58.9311C566.1 58.7772 566.276 58.5559 566.397 58.267C566.518 57.9782 566.578 57.6326 566.578 57.2301C566.578 56.8371 566.519 56.4903 566.4 56.1896C566.282 55.889 566.107 55.6534 565.875 55.483C565.643 55.3125 565.356 55.2273 565.016 55.2273C564.66 55.2273 564.364 55.3172 564.128 55.4972C563.893 55.6771 563.717 55.9186 563.599 56.2216C563.483 56.5246 563.425 56.8608 563.425 57.2301C563.425 57.6089 563.484 57.9439 563.602 58.2351C563.723 58.5239 563.9 58.7512 564.135 58.9169C564.372 59.0803 564.665 59.1619 565.016 59.1619ZM569.774 56.7188V60H568.936V54.5455H569.746V55.3977H569.817C569.945 55.1207 570.139 54.8982 570.399 54.7301C570.659 54.5597 570.996 54.4744 571.408 54.4744C571.777 54.4744 572.1 54.5502 572.377 54.7017C572.654 54.8509 572.869 55.0781 573.023 55.3835C573.177 55.6866 573.254 56.0701 573.254 56.5341V60H572.416V56.5909C572.416 56.1624 572.305 55.8286 572.082 55.5895C571.86 55.348 571.554 55.2273 571.166 55.2273C570.899 55.2273 570.659 55.2853 570.449 55.4013C570.24 55.5173 570.076 55.6866 569.955 55.9091C569.834 56.1316 569.774 56.4015 569.774 56.7188ZM577.073 60.1136C576.547 60.1136 576.094 59.9976 575.712 59.7656C575.334 59.5312 575.041 59.2045 574.835 58.7855C574.632 58.3641 574.53 57.8741 574.53 57.3153C574.53 56.7566 574.632 56.2642 574.835 55.8381C575.041 55.4096 575.328 55.0758 575.695 54.8366C576.064 54.5952 576.495 54.4744 576.987 54.4744C577.271 54.4744 577.552 54.5218 577.829 54.6165C578.106 54.7112 578.358 54.8651 578.585 55.0781C578.813 55.2888 578.994 55.5682 579.129 55.9162C579.264 56.2642 579.331 56.6927 579.331 57.2017V57.5568H575.127V56.8324H578.479C578.479 56.5246 578.417 56.25 578.294 56.0085C578.173 55.767 578.001 55.5765 577.776 55.4368C577.553 55.2971 577.29 55.2273 576.987 55.2273C576.653 55.2273 576.365 55.3101 576.121 55.4759C575.879 55.6392 575.694 55.8523 575.563 56.1151C575.433 56.3778 575.368 56.6596 575.368 56.9602V57.4432C575.368 57.8551 575.439 58.2043 575.581 58.4908C575.725 58.7749 575.926 58.9915 576.181 59.1406C576.437 59.2874 576.734 59.3608 577.073 59.3608C577.293 59.3608 577.492 59.33 577.669 59.2685C577.849 59.2045 578.004 59.1098 578.134 58.9844C578.265 58.8565 578.365 58.6979 578.436 58.5085L579.246 58.7358C579.161 59.0104 579.017 59.2519 578.816 59.4602C578.615 59.6662 578.366 59.8272 578.07 59.9432C577.774 60.0568 577.442 60.1136 577.073 60.1136ZM580.606 60V54.5455H581.416V55.3693H581.472C581.572 55.0994 581.752 54.8804 582.012 54.7124C582.273 54.5443 582.566 54.4602 582.893 54.4602C582.954 54.4602 583.031 54.4614 583.124 54.4638C583.216 54.4661 583.286 54.4697 583.333 54.4744V55.3267C583.305 55.3196 583.24 55.3089 583.138 55.2947C583.038 55.2782 582.933 55.2699 582.822 55.2699C582.557 55.2699 582.32 55.3255 582.112 55.4368C581.906 55.5457 581.742 55.6972 581.622 55.8913C581.503 56.0831 581.444 56.3021 581.444 56.5483V60H580.606Z" fill="white"/>
</svg>
